<?xml version="1.0" encoding="UTF-8"?>
<svg width="1125px" height="373px" viewBox="0 0 1125 373" version="1.1" xmlns="http://www.w3.org/2000/svg" xmlns:xlink="http://www.w3.org/1999/xlink">
    <!-- Generator: Sketch 47.1 (45422) - http://www.bohemiancoding.com/sketch -->
    <title>Logo</title>
    <desc>Created with Sketch.</desc>
    <defs></defs>
    <g id="Page-1" stroke="none" stroke-width="1" fill="none" fill-rule="evenodd">
        <g id="Logo">
            <rect id="Rectangle" fill="#092E20" x="0" y="0" width="295" height="373"></rect>
            <rect id="Rectangle-Copy" fill="#092E20" x="830" y="0" width="295" height="373"></rect>
            <g id="django-logo-negative" transform="translate(245.000000, 0.000000)" fill-rule="nonzero">
                <path d="M871,324.646805 C871,351.351584 849.339471,373 822.61975,373 L48.3802496,373 C21.6605289,373 0,351.351584 0,324.646805 L0,48.353195 C0,21.6484162 21.6605289,0 48.3802496,0 L822.61975,0 C849.339471,0 871,21.6484162 871,48.353195 L871,324.646805 Z" id="Shape" fill="#092E20"></path>
                <g id="Group" transform="translate(61.000000, 58.000000)" fill="#FFFFFF">
                    <path d="M89.7447941,0.587363636 L130.988181,0.587363636 L130.988181,191.444091 C109.830904,195.46 94.297254,197.066364 77.426373,197.066364 C27.0780664,197.066364 0.832745995,174.311273 0.832745995,130.664818 C0.832745995,88.6299091 28.6865446,61.32 71.802746,61.32 C78.49754,61.32 83.5855835,61.8571818 89.7465217,63.4600909 L89.7465217,0.587363636 L89.7447941,0.587363636 Z M89.7447941,96.6582727 C84.9245423,95.0536364 80.9076659,94.5181818 75.8196224,94.5181818 C54.9301373,94.5181818 42.8777803,107.370818 42.8777803,129.858182 C42.8777803,151.817 54.3945538,163.864727 75.5518307,163.864727 C80.1025629,163.864727 83.8533753,163.597 89.7447941,162.797273 L89.7447941,96.6582727 Z" id="Shape"></path>
                    <path d="M196.59889,64.2615455 L196.59889,159.850545 C196.59889,192.781 194.188764,208.576909 186.958387,222.234455 C180.261865,235.354818 171.423009,243.650909 153.213169,252.755364 L114.915492,234.548182 C133.127059,225.980909 141.964188,218.489727 147.587815,206.970545 C153.480961,195.192273 155.357231,181.533 155.357231,145.655818 L155.357231,64.2615455 L196.59889,64.2615455 Z M155.357231,0.806727273 L196.59889,0.806727273 L196.59889,43.1128182 L155.357231,43.1128182 L155.357231,0.806727273 L155.357231,0.806727273 Z" id="Shape"></path>
                    <path d="M221.510435,73.6337273 C239.72373,65.0647273 257.130195,61.3182727 276.145137,61.3182727 C297.302414,61.3182727 311.227586,66.9405455 317.388524,77.9190909 C320.868089,84.0750909 321.939256,92.1069091 321.939256,109.246636 L321.939256,193.048727 C303.458169,195.729455 280.160286,197.601818 263.021613,197.601818 C228.474748,197.601818 212.939371,185.550636 212.939371,158.779636 C212.939371,129.858182 233.561064,116.473545 284.17889,112.186455 L284.17889,103.082 C284.17889,95.5873636 280.429805,92.9118182 269.984199,92.9118182 C254.720069,92.9118182 237.579668,97.1937273 221.508707,105.495 L221.508707,73.6337273 L221.510435,73.6337273 Z M286.053432,139.232091 C258.735217,141.912818 249.898089,146.194727 249.898089,156.903818 C249.898089,164.935636 254.98786,168.685545 266.235114,168.685545 C272.396053,168.685545 278.017952,168.148364 286.053432,166.813182 L286.053432,139.232091 Z" id="Shape"></path>
                    <path d="M342.027094,70.6904545 C366.396144,64.2615455 386.482254,61.3182727 406.836156,61.3182727 C427.993432,61.3182727 443.259291,66.1339091 452.367666,75.5095455 C460.937002,84.3410909 463.613192,93.9792727 463.613192,114.601182 L463.613192,195.46 L422.371533,195.46 L422.371533,116.205818 C422.371533,100.409909 417.015698,94.5164545 402.287151,94.5164545 C396.663524,94.5164545 391.575481,95.0536364 383.270481,97.4631818 L383.270481,195.458273 L342.028822,195.458273 L342.028822,70.6904545 L342.027094,70.6904545 Z" id="Shape"></path>
                    <path d="M479.646144,217.950818 C494.110355,225.445455 508.57111,228.925909 523.83524,228.925909 C550.882208,228.925909 562.398982,217.950818 562.398982,191.710091 C562.398982,191.444091 562.398982,191.174636 562.398982,190.903455 C554.365229,194.921091 546.329748,196.529182 535.619805,196.529182 C499.464462,196.529182 476.429188,172.698 476.429188,134.948455 C476.429188,88.091 510.443924,61.586 570.698799,61.586 C588.37651,61.586 604.713535,63.4583636 624.531854,67.4708182 L610.409725,97.2179091 C599.428535,95.0743636 609.530332,96.9294545 601.232243,96.1262727 L601.232243,100.409909 L601.766098,117.810455 L602.032162,140.303 C602.299954,145.921818 602.299954,151.547545 602.569474,157.168091 C602.569474,162.254909 602.569474,164.667909 602.569474,168.416091 C602.569474,203.759545 599.623764,220.360364 590.786636,234.012727 C577.930904,254.095727 555.70246,264.001636 524.101304,264.001636 C508.032071,264.001636 494.108627,261.590364 479.644416,255.968091 L479.644416,217.950818 L479.646144,217.950818 Z M561.597334,94.7859091 C561.061751,94.7859091 560.527895,94.7859091 560.260103,94.7859091 L557.312666,94.7859091 C549.280641,94.5181818 539.907929,96.6582727 533.477471,100.674182 C523.570904,106.299909 518.479405,116.471818 518.479405,130.932545 C518.479405,151.551 528.658947,163.329273 546.868787,163.329273 C552.492414,163.329273 557.046602,162.258364 562.400709,160.652 L562.400709,157.707 L562.400709,146.462455 C562.400709,141.643364 562.134645,136.285364 562.134645,130.664818 L561.868581,111.654455 L561.599062,98.0003636 L561.599062,94.7859091 L561.597334,94.7859091 Z" id="Shape"></path>
                    <path d="M688.558272,60.7845455 C729.799931,60.7845455 754.975812,86.7575455 754.975812,128.789 C754.975812,171.896545 728.73222,198.938727 686.951522,198.938727 C645.706407,198.938727 620.264462,172.967455 620.264462,131.202 C620.26619,87.8232727 646.513238,60.7845455 688.558272,60.7845455 Z M687.751442,165.738818 C703.554611,165.738818 712.92905,152.618455 712.92905,129.858182 C712.92905,107.370818 703.822403,93.981 688.024416,93.981 C671.685664,93.981 662.309497,107.104818 662.309497,129.858182 C662.311224,152.620182 671.685664,165.738818 687.751442,165.738818 Z" id="Shape"></path>
                </g>
            </g>
            <polygon id="Path" fill="#00D1B2" fill-rule="nonzero" points="53 247 73 107 153 27 253 127 193 187 273 267 153 347"></polygon>
        </g>
    </g>
</svg>